<svg xmlns="http://www.w3.org/2000/svg" viewBox="0 0 240 60" fill="#F04E23">
  <!-- w - two U shapes connected -->
  <path d="M0 0h8v40c0 8.84 7.16 16 16 16s16-7.16 16-16V0h8v40c0 8.84 7.16 16 16 16s16-7.16 16-16V0h8v40c0 13.25-10.75 24-24 24-7.83 0-14.78-3.75-19.15-9.55C40.48 60.25 33.53 64 25.7 64 12.45 64 0 53.25 0 40V0z"/>
  <!-- r -->
  <path d="M88 20c0-11.05 8.95-20 20-20h4v8h-4c-6.63 0-12 5.37-12 12v40h-8V20z"/>
  <!-- t -->
  <path d="M120 0h8v12h12v8h-12v32c0 4.42 3.58 8 8 8h4v8h-4c-8.84 0-16-7.16-16-16V20h-8v-8h8V0z"/>
  <!-- n -->
  <path d="M156 20c0-11.05 8.95-20 20-20s20 8.95 20 20v40h-8V20c0-6.63-5.37-12-12-12s-12 5.37-12 12v40h-8V20z"/>
  <!-- dot -->
  <circle cx="220" cy="52" r="8"/>
</svg>